<svg width="150" height="150" viewBox="0 0 150 150" fill="none" xmlns="http://www.w3.org/2000/svg">
<g clip-path="url(#clip0_1_993)">
<g clip-path="url(#clip1_1_993)">
<path d="M11.0765 66.3564C11.1034 66.8271 11.4934 67.1902 11.9507 67.1902C12.4079 67.1902 12.7979 66.8271 12.8248 66.3564L13.2552 58.7445C13.2821 58.3814 13.1476 58.0048 12.8786 57.7224C12.6231 57.4669 12.2869 57.3324 11.9507 57.3324C11.6145 57.3324 11.2782 57.4669 11.0227 57.7224C10.7403 58.0048 10.6193 58.3814 10.6462 58.7445L11.0765 66.3564Z" fill="black"/>
<path d="M15.8372 70.4179C15.4203 70.1758 14.8823 70.3237 14.6403 70.7406C14.1023 71.6686 13.0937 72.3007 11.9371 72.3007C10.7805 72.3007 9.77189 71.6686 9.23394 70.7406C8.99187 70.3237 8.45393 70.1758 8.03702 70.4179C7.62011 70.6599 7.47218 71.1979 7.71425 71.6148C8.54807 73.0672 10.1215 74.049 11.9236 74.049C13.7258 74.049 15.2992 73.0672 16.1331 71.6148C16.402 71.1979 16.2675 70.6599 15.8372 70.4179Z" fill="black"/>
<path d="M8.34601 67.0962C8.49395 67.54 8.96465 67.7955 9.40845 67.6744C9.85226 67.5534 10.1347 67.1096 10.0406 66.6524L8.65533 59.9818C8.58809 59.6456 8.37291 59.3229 8.05015 59.1346C7.74083 58.9597 7.40461 58.9194 7.09529 59.0135C6.78598 59.0942 6.50355 59.296 6.32872 59.6053C6.14044 59.928 6.11354 60.3046 6.22113 60.6408L8.34601 67.0962Z" fill="black"/>
<path d="M6.04541 68.6292C6.30094 69.0192 6.81199 69.1403 7.21545 68.9116C7.6189 68.683 7.76684 68.172 7.55166 67.7551L4.86194 62.416C4.714 62.1201 4.43158 61.878 4.08192 61.7839C3.75915 61.7032 3.42293 61.7435 3.15396 61.9049C2.88499 62.0663 2.66981 62.3218 2.58912 62.6446C2.49498 62.9943 2.56222 63.3574 2.7505 63.6263L6.04541 68.6292Z" fill="black"/>
<path d="M14.4911 67.6744C14.9349 67.7954 15.4056 67.5399 15.5536 67.0961L17.6919 60.6273C17.7995 60.2911 17.7726 59.9145 17.5843 59.5917C17.4095 59.2959 17.1271 59.0807 16.8177 59C16.5084 58.9193 16.1588 58.9462 15.8629 59.121C15.5401 59.3093 15.3249 59.6186 15.2577 59.9683L13.8725 66.6388C13.7649 67.0961 14.0473 67.5533 14.4911 67.6744Z" fill="black"/>
<path d="M16.6835 68.9116C17.087 69.1403 17.598 69.0192 17.8536 68.6292L21.135 63.6263C21.3233 63.3439 21.3906 62.9942 21.2964 62.6446C21.2157 62.3218 21.0005 62.0663 20.7316 61.9049C20.4626 61.7435 20.1264 61.6897 19.8036 61.7839C19.454 61.878 19.185 62.1201 19.0236 62.416L16.3339 67.7551C16.1321 68.172 16.2801 68.6696 16.6835 68.9116Z" fill="black"/>
<path d="M23.6636 89.5553L18.9835 83.3421C18.1362 82.2258 17.6521 80.8406 17.6521 79.3613C17.6521 77.8954 18.1362 76.4967 18.9835 75.3805L23.6636 69.1672C24.1478 68.3334 23.8654 67.2575 23.0181 66.7734C22.1843 66.2892 21.1084 66.5716 20.6242 67.4189L17.7059 72.489C16.4821 74.6139 14.2496 75.8108 11.9499 75.7974C9.65016 75.8108 7.41768 74.6139 6.19386 72.489L3.27551 67.4189C2.79136 66.5851 1.71547 66.2892 0.881652 66.7734C0.0478375 67.2575 -0.24803 68.3334 0.23612 69.1672L4.91624 75.3805C5.7635 76.4967 6.24765 77.8819 6.24765 79.3613C6.24765 80.8272 5.7635 82.2258 4.91624 83.3421L0.23612 89.5553C-0.24803 90.3891 0.0343888 91.465 0.881652 91.9492C1.71547 92.4333 2.79136 92.1509 3.27551 91.3036L6.19386 86.247C7.41768 84.1221 9.66361 82.9251 11.9499 82.9386C14.2496 82.9251 16.4821 84.1221 17.7059 86.247L20.6242 91.3171C21.1084 92.1509 22.1843 92.4468 23.0181 91.9626C23.8519 91.465 24.1478 90.3891 23.6636 89.5553Z" fill="black"/>
<path d="M148.278 76.806C148.452 76.806 148.614 76.7253 148.614 76.4698C148.614 76.2277 148.479 76.1336 148.278 76.1336H147.645V76.7926H148.278V76.806ZM149.031 77.9357H148.56L148.17 77.1826H147.645V77.9357H147.242V75.7839H148.278C148.735 75.7839 149.017 76.0663 149.017 76.4833C149.017 76.7926 148.842 77.0481 148.573 77.1422L149.031 77.9357ZM148.035 75.2998C147.175 75.2998 146.462 76.0126 146.462 76.9002C146.462 77.7878 147.161 78.5005 148.035 78.5005C148.91 78.5005 149.609 77.7878 149.609 76.9002C149.609 76.0126 148.896 75.2998 148.035 75.2998ZM148.035 78.8502C146.946 78.8502 146.072 77.9761 146.072 76.8867C146.072 75.8108 146.946 74.9232 148.035 74.9232C149.125 74.9232 149.999 75.7974 149.999 76.8867C149.999 77.9761 149.111 78.8502 148.035 78.8502Z" fill="black"/>
<path d="M127.985 80.074C126.559 79.8454 125.698 79.6437 125.698 79.0385C125.698 78.6081 126.263 78.124 127.621 78.124C128.428 78.124 128.993 78.3526 129.303 78.6888C129.518 78.9174 129.867 78.9981 130.177 78.9174L131.898 78.4467C132.167 78.3795 132.302 78.0702 132.167 77.8281C131.374 76.3756 129.706 75.488 127.621 75.488C124.286 75.488 122.699 77.3708 122.699 79.1864C122.699 81.7551 125.456 82.3199 127.514 82.6293C129.531 82.9386 129.935 83.2075 129.935 83.8531C129.935 84.5255 129.034 84.8886 127.85 84.8886C127.137 84.8886 126.223 84.6466 125.685 84.0279C125.456 83.7589 125.093 83.6245 124.743 83.7186L123.035 84.1758C122.78 84.2431 122.632 84.5255 122.753 84.781C123.546 86.5294 125.443 87.5783 127.85 87.5783C130.809 87.5783 132.907 85.9645 132.907 83.6782C132.907 81.1634 130.849 80.5447 127.985 80.074Z" fill="black"/>
<path d="M101.304 78.2047H95.1306V74.5063H102.783C103.052 74.5063 103.28 74.2912 103.28 74.0087V72.2604C103.28 71.9914 103.052 71.7628 102.783 71.7628H92.6695C92.4005 71.7628 92.1719 71.9914 92.1719 72.2604V86.7984C92.1719 87.0674 92.4005 87.296 92.6695 87.296H94.633C94.902 87.296 95.1306 87.0674 95.1306 86.7984V80.9617H101.304C101.572 80.9617 101.801 80.7465 101.801 80.4641V78.7023C101.801 78.4199 101.572 78.2047 101.304 78.2047Z" fill="black"/>
<path d="M107.703 72.2604C107.703 71.9914 107.474 71.7628 107.205 71.7628H105.242C104.973 71.7628 104.744 71.978 104.744 72.2604V86.7984C104.744 87.0674 104.96 87.296 105.242 87.296H107.205C107.474 87.296 107.703 87.0808 107.703 86.7984V72.2604Z" fill="black"/>
<path d="M115.114 84.808C113.487 84.808 112.156 83.3959 112.156 81.5669C112.156 79.6841 113.473 78.2585 115.114 78.2585C116.742 78.2585 118.073 79.7379 118.073 81.5669C118.059 83.3555 116.742 84.808 115.114 84.808ZM120.521 75.7705H118.692C118.423 75.7705 118.194 75.9857 118.194 76.2681V77.0078C117.293 76.0664 116.069 75.5284 114.657 75.5284C111.658 75.5284 109.17 78.124 109.17 81.5534C109.17 84.9559 111.658 87.5515 114.657 87.5515C116.069 87.5515 117.293 87.0136 118.194 86.0722V86.8118C118.194 87.0808 118.409 87.3094 118.692 87.3094H120.521C120.79 87.3094 121.018 87.0943 121.018 86.8118V76.2816C121.018 75.9857 120.79 75.7705 120.521 75.7705Z" fill="black"/>
<path d="M140.923 80.2623L144.527 76.4967C144.783 76.2278 144.595 75.7705 144.218 75.7705H141.555C141.3 75.7705 141.044 75.8781 140.883 76.0664L137.373 79.953V72.2604C137.373 71.978 137.144 71.7628 136.875 71.7628H134.925C134.643 71.7628 134.428 71.9914 134.428 72.2604V86.7984C134.428 87.0674 134.643 87.296 134.925 87.296H136.889C137.158 87.296 137.386 87.0808 137.386 86.7984V83.9876L138.866 82.441L141.461 86.8522C141.623 87.1346 141.918 87.296 142.241 87.296H144.648C145.012 87.296 145.227 86.8925 145.025 86.5966L140.923 80.2623Z" fill="black"/>
<path d="M40.8501 72.2604C40.8501 71.9914 40.6215 71.7628 40.3526 71.7628H38.3891C38.1201 71.7628 37.8915 71.978 37.8915 72.2604L37.878 78.1509H31.2613L31.2747 72.2604C31.2747 71.9914 31.0596 71.7628 30.7771 71.7628H28.7867C28.5178 71.7628 28.2891 71.978 28.2891 72.2604V86.7984C28.2891 87.0674 28.5178 87.296 28.7867 87.296H30.7771C31.0461 87.296 31.2747 87.0674 31.2747 86.7984L31.2613 80.9079H37.878L37.8915 86.7984C37.8915 87.0674 38.1201 87.296 38.3891 87.296H40.3526C40.6215 87.296 40.8501 87.0808 40.8501 86.7984V72.2604Z" fill="black"/>
<path d="M60.122 84.808C58.4947 84.808 57.1633 83.3959 57.1633 81.5669C57.1633 79.6841 58.4812 78.2585 60.122 78.2585C61.7627 78.2585 63.0807 79.7379 63.0807 81.5669C63.0672 83.3555 61.7492 84.808 60.122 84.808ZM66.0259 72.2604C66.0259 71.9914 65.7973 71.7628 65.5283 71.7628H63.5648C63.2958 71.7628 63.0672 71.978 63.0672 72.2604V76.8733C62.1661 76.026 61.0096 75.5284 59.6647 75.5284C56.6657 75.5284 54.1777 78.124 54.1777 81.5534C54.1777 84.9559 56.6657 87.5515 59.6647 87.5515C61.0768 87.5515 62.2872 87.0136 63.2017 86.0722V86.8118C63.2017 87.0808 63.4169 87.3094 63.6993 87.3094H65.5283C65.7973 87.3094 66.0259 87.0942 66.0259 86.8118V72.2604Z" fill="black"/>
<path d="M73.9479 75.4881C72.7241 75.4208 71.5272 75.8646 70.6934 76.9002V76.2546C70.6934 75.9857 70.4782 75.757 70.1958 75.757H68.3667C68.0978 75.757 67.8691 75.9857 67.8691 76.2546V86.7849C67.8691 87.0539 68.0843 87.2825 68.3667 87.2825H70.3302C70.5992 87.2825 70.8278 87.0539 70.8278 86.7849V81.6206C70.8278 80.7061 70.9354 79.7647 71.5675 79.1192C72.1324 78.514 72.9393 78.3257 73.8807 78.3661C74.1631 78.3795 74.4052 78.1509 74.4052 77.8685V75.9857C74.4052 75.7301 74.2034 75.5015 73.9479 75.4881Z" fill="black"/>
<path d="M80.4975 84.8483C78.9375 84.8483 77.6599 83.5034 77.6599 81.5534C77.6599 79.563 78.9375 78.1778 80.4975 78.1778C82.0576 78.1778 83.3352 79.563 83.3352 81.5534C83.3352 83.5034 82.0576 84.8483 80.4975 84.8483ZM80.4975 75.4746C77.2968 75.4746 74.7012 78.0971 74.7012 81.5399C74.7012 84.9828 77.2968 87.5649 80.4975 87.5649C83.6983 87.5649 86.3208 84.9962 86.3208 81.5399C86.3073 78.0971 83.6983 75.4746 80.4975 75.4746Z" fill="black"/>
<path d="M53.5607 75.7705H51.7317C51.4627 75.7705 51.2206 75.9319 51.1265 76.1874L48.3023 83.5304L45.4781 76.1874C45.3839 75.9319 45.1419 75.7705 44.8729 75.7705H43.0439C42.6942 75.7705 42.4521 76.1202 42.5866 76.4429L46.8095 87.4439L46.4598 88.3719C46.0295 89.5016 45.4108 89.9454 44.2543 89.9723C43.9853 89.9723 43.7567 90.1874 43.7567 90.4699V92.1644C43.7567 92.4334 43.9718 92.6485 44.2408 92.662C46.406 92.7292 47.9661 92.2316 49.0689 89.394L54.0314 76.4429C54.1524 76.1067 53.9104 75.7705 53.5607 75.7705Z" fill="black"/>
</g>
</g>
<defs>
<clipPath id="clip0_1_993">
<rect width="150" height="150" fill="white"/>
</clipPath>
<clipPath id="clip1_1_993">
<rect width="150" height="150" fill="white"/>
</clipPath>
</defs>
</svg>
