<svg width="150" height="150" viewBox="0 0 150 150" fill="none" xmlns="http://www.w3.org/2000/svg">
<g clip-path="url(#clip0_1_983)">
<g clip-path="url(#clip1_1_983)">
<mask id="mask0_1_983" style="mask-type:luminance" maskUnits="userSpaceOnUse" x="13" y="58" width="124" height="34">
<path d="M137 58H13V92H137V58Z" fill="white"/>
</mask>
<g mask="url(#mask0_1_983)">
<mask id="mask1_1_983" style="mask-type:luminance" maskUnits="userSpaceOnUse" x="13" y="58" width="124" height="35">
<path d="M137 58.1934H13V92.2887H137V58.1934Z" fill="white"/>
</mask>
<g mask="url(#mask1_1_983)">
<path d="M42.9727 58.2217V84.4942L46.3548 84.5071V72.0019H54.5259V68.6921H46.3548V61.5315H56.9915V58.2217H42.9727ZM63.0972 63.5535C64.3236 63.5535 65.3046 62.5618 65.3046 61.3512C65.3046 60.1406 64.3106 59.1489 63.0972 59.1489C61.8709 59.1489 60.8899 60.1406 60.8899 61.3512C60.8899 62.5618 61.8838 63.5535 63.0972 63.5535ZM61.3804 66.8633V84.4942H64.7624V66.8633H61.3804Z" fill="black"/>
<path fill-rule="evenodd" clip-rule="evenodd" d="M77.3235 66.348C72.8184 66.348 69.6816 70.1473 69.6816 74.6548C69.6816 79.1624 72.8184 82.9616 77.3235 82.9616C79.3889 82.9616 81.0799 82.1631 82.3192 80.8752V83.2063C82.3192 86.1297 80.0214 88.5638 77.0137 88.5638C75.9294 88.5638 74.858 88.1517 74.006 87.5593L72.3021 90.4956C73.6575 91.3714 75.2711 91.8736 77.0008 91.8736C81.8028 91.8736 85.6883 87.9971 85.6883 83.2063V66.8632H82.3192V68.4344C81.0799 67.1465 79.3889 66.348 77.3235 66.348ZM73.0766 74.6548C73.0766 71.8601 75.2194 69.6579 77.6979 69.6579C80.1763 69.6579 82.3192 71.8601 82.3192 74.6548C82.3192 77.4495 80.1763 79.6517 77.6979 79.6517C75.2194 79.6517 73.0766 77.4495 73.0766 74.6548Z" fill="black"/>
<path d="M97.9136 69.6579C95.9128 69.6579 94.2863 71.3579 94.2863 73.3541V84.4941H90.9043V66.8632H94.2863V68.473C95.2803 67.198 96.739 66.348 98.6494 66.348C101.025 66.348 102.845 67.52 103.904 69.323C105.078 67.5844 106.989 66.348 109.299 66.348C113.159 66.348 115.56 69.4518 115.573 73.2897V84.4941H112.191V73.3412C112.191 71.345 110.564 69.645 108.564 69.645C106.563 69.645 104.936 71.345 104.936 73.3412V84.4941H101.554V73.3412C101.541 71.345 99.9145 69.6579 97.9136 69.6579Z" fill="black"/>
<path fill-rule="evenodd" clip-rule="evenodd" d="M133.618 68.8594C132.108 67.3011 130.042 66.348 127.654 66.348C122.62 66.348 119.031 70.6109 119.031 75.6851C119.031 80.7593 122.607 85.0222 127.654 85.0222C130.042 85.0222 132.108 84.0563 133.618 82.5108V84.4941H137V66.8632H133.618V68.8594ZM122.426 75.6851C122.426 72.3238 125.008 69.6579 128.029 69.6579C131.036 69.6579 133.631 72.3109 133.631 75.6851C133.631 79.0464 131.049 81.7123 128.029 81.7123C125.008 81.6995 122.426 79.0464 122.426 75.6851Z" fill="black"/>
<path d="M24.373 75.2475C24.373 72.118 26.916 69.568 30.0657 69.568C33.2024 69.568 35.7583 72.1051 35.7583 75.2475C35.7583 78.377 33.2153 80.927 30.0657 80.927C26.9289 80.927 24.373 78.377 24.373 75.2475Z" fill="#1ABCFE"/>
<path d="M13 86.5932C13 83.4637 15.543 80.9137 18.6927 80.9137H24.3854V86.5932C24.3854 89.7228 21.8424 92.2727 18.6927 92.2727C15.543 92.2727 13 89.7356 13 86.5932Z" fill="#0ACF83"/>
<path d="M24.373 58.2215V69.5677H30.0657C33.2024 69.5677 35.7583 67.0306 35.7583 63.8881C35.7583 60.7586 33.2153 58.2086 30.0657 58.2086H24.373V58.2215Z" fill="#FF7262"/>
<path d="M13 63.9012C13 67.0307 15.543 69.5807 18.6927 69.5807H24.3854V58.2217H18.6927C15.543 58.2217 13 60.7588 13 63.9012Z" fill="#F24E1E"/>
<path d="M13 75.2475C13 78.377 15.543 80.927 18.6927 80.927H24.3854V69.568H18.6927C15.543 69.568 13 72.118 13 75.2475Z" fill="#A259FF"/>
</g>
</g>
</g>
</g>
<defs>
<clipPath id="clip0_1_983">
<rect width="150" height="150" fill="white"/>
</clipPath>
<clipPath id="clip1_1_983">
<rect width="150" height="150" fill="white"/>
</clipPath>
</defs>
</svg>
