<svg width="150" height="150" viewBox="0 0 150 150" fill="none" xmlns="http://www.w3.org/2000/svg">
<g clip-path="url(#clip0_1_1013)">
<g clip-path="url(#clip1_1_1013)">
<g clip-path="url(#clip2_1_1013)">
<mask id="mask0_1_1013" style="mask-type:luminance" maskUnits="userSpaceOnUse" x="0" y="52" width="150" height="46">
<path d="M150 52.3765H0V97.6238H150V52.3765Z" fill="white"/>
</mask>
<g mask="url(#mask0_1_1013)">
<path d="M85.5618 84.7772C84.3752 83.5038 82.6194 82.7964 80.3846 82.7964C78.1497 82.7964 76.4776 83.4459 75.2331 84.6615C73.8472 85.9927 73.2266 87.9157 73.2266 90.1795C73.2266 92.5591 73.9051 94.4241 75.2621 95.7554C76.4519 96.9163 78.2044 97.6237 80.4135 97.6237C84.0633 97.6237 86.4396 96.0384 87.2596 92.8678L83.4105 92.5301C83.1275 93.9997 82.2239 94.8197 80.4135 94.8197C78.2912 94.8197 77.1593 93.6042 77.1304 91.2278H87.4879C87.5426 88.4559 86.922 86.2468 85.5618 84.7772ZM77.1593 88.5106C77.2429 87.7485 77.4712 87.0957 77.8667 86.5876C78.4037 85.8802 79.2237 85.5393 80.3846 85.5393C81.4039 85.5393 82.1114 85.7934 82.6484 86.3593C83.1565 86.8995 83.3848 87.6327 83.4684 88.5106H77.1593Z" fill="black"/>
<path d="M107.34 79.2014H103.433V83.1341H101.398V86.2469H103.433V93.4338C103.433 96.3762 105.359 97.4245 108.073 97.4245C108.81 97.4245 109.575 97.3666 110.17 97.2251L110.112 93.8583C109.659 93.9451 109.18 93.9998 108.81 93.9998C107.848 93.9998 107.34 93.7747 107.34 92.9837V86.2469H110.225V83.1341H107.34V79.2014Z" fill="black"/>
<path d="M115.824 83.134H111.863V97.2829H115.824V83.134Z" fill="black"/>
<path d="M59.0488 97.283H63.2935V88.993H71.9243V85.5684H63.2935V80.8993H72.9693V77.4746H59.0488V97.283Z" fill="black"/>
<path d="M115.824 77.1917H111.863V81.2658H115.824V77.1917Z" fill="black"/>
<path d="M26.4772 77.4746H22.5156V97.283H26.4772V77.4746Z" fill="black"/>
<path d="M20.2488 77.1917H16.2871V81.2658H20.2488V77.1917Z" fill="black"/>
<path d="M149.999 77.4746H146.037V97.283H149.999V77.4746Z" fill="black"/>
<path d="M1.18945 97.283H5.43409V88.993H14.0649V85.5684H5.43409V80.8993H15.11V77.4746H1.18945V97.283Z" fill="black"/>
<path d="M20.2488 83.134H16.2871V97.2829H20.2488V83.134Z" fill="black"/>
<path d="M8.65972 69.5801C6.11293 69.5801 4.35719 68.2489 4.35719 65.477L0 65.9593C0.112547 70.741 3.96167 72.8633 8.54717 72.8633C12.6761 72.8633 16.9207 71.5031 16.9207 66.7504C16.9207 62.4768 13.5829 61.2902 9.28034 60.5249C6.45058 60.0168 4.86848 59.4509 4.86848 57.9781C4.86848 56.4217 6.19654 55.6307 8.23526 55.6307C10.528 55.6307 11.8561 56.7626 11.9686 59.393L16.3001 58.7145C15.8177 54.0743 12.5635 52.3765 8.2642 52.3765C4.44402 52.3765 0.537012 54.129 0.537012 58.1775C0.537012 61.9687 3.59509 63.3547 7.55676 64.2036C10.5537 64.8532 12.5635 64.94 12.5635 66.8629C12.5635 68.7859 10.8657 69.5801 8.65972 69.5801Z" fill="black"/>
<path d="M69.9433 64.0909C67.1135 64.599 64.5957 65.4769 64.5957 68.506C64.5957 71.5351 66.8306 72.8632 69.6025 72.8632C71.8663 72.8632 73.339 71.8439 74.0175 70.6251C74.0465 71.3068 74.1301 72.0143 74.2716 72.5224H78.2043V72.4098C77.8924 71.8149 77.6383 71.0496 77.6383 69.9756V62.705C77.6383 59.618 75.3745 58.0359 71.6958 58.0359C69.5735 58.0359 67.9914 58.4025 66.8852 59.1678C65.7276 59.9588 65.1038 61.2612 65.1038 63.1005L68.9818 63.3835C68.9818 61.4027 69.8565 60.8367 71.4129 60.8367C72.5448 60.8367 73.085 61.0329 73.4516 61.5442C73.8182 62.0522 73.7924 62.7307 73.7924 63.3835L69.9433 64.0909ZM73.7924 67.0333C73.7924 69.1845 72.4322 70.0592 70.5639 70.0592C69.4899 70.0592 68.6699 69.58 68.6699 68.4771C68.6699 67.3741 69.4063 66.9496 70.5929 66.6924L73.7924 65.985V67.0333Z" fill="black"/>
<path d="M54.9998 72.8633C56.7813 72.8633 58.2797 72.1269 58.9615 70.5706V72.5225H62.9199V52.7141H58.9615V60.0168C58.1125 58.7434 56.6976 58.036 54.9708 58.036C51.1796 58.036 48.6875 60.9783 48.6875 65.4481C48.6875 69.9178 51.3211 72.8633 54.9998 72.8633ZM53.7811 61.7983C54.2345 61.1745 54.9708 60.8658 56.0449 60.8658C58.1672 60.8658 59.0451 62.4768 59.0451 65.477C59.0451 67.1459 58.7331 68.4193 58.0257 69.2103C57.5466 69.7506 56.8649 70.0336 55.9902 70.0336C53.6685 70.0336 52.99 68.6444 52.99 65.4481C52.99 63.7502 53.1862 62.5347 53.7811 61.7983Z" fill="black"/>
<path d="M83.8823 64.7984C83.8823 61.8818 85.2971 61.0618 86.5159 61.0618C87.3648 61.0618 87.8439 61.1486 88.3552 61.6278C88.9758 62.2227 89.0916 62.9012 89.0916 64.2035V72.5224H93.079V63.8626C93.079 62.0233 92.9375 60.4959 91.8056 59.3639C90.902 58.4604 89.8537 58.0359 88.0433 58.0359C86.2329 58.0359 84.5897 58.7144 83.8565 60.4959V58.3735H79.9238V72.5224H83.8823V64.7984Z" fill="black"/>
<path d="M88.6006 87.1246C88.6006 90.038 91.0927 90.8869 93.8099 91.5397C96.0448 92.0767 97.1188 92.4176 97.1188 93.3501C97.1188 94.3952 96.2988 94.9901 94.6846 94.9901C93.0703 94.9901 91.9706 94.228 91.9127 92.5301L88.1504 93.0093C88.4334 96.2635 91.2342 97.6237 94.601 97.6237C97.9677 97.6237 100.91 96.5465 100.91 93.1508C100.91 89.755 97.7684 89.1055 95.2505 88.5395C93.3565 88.1151 92.3372 87.7742 92.3372 86.8127C92.3372 85.8512 93.2986 85.3978 94.4595 85.3978C95.8744 85.3978 96.8069 86.1053 96.8937 87.6906L100.543 87.0668C100.174 83.8415 97.5143 82.7964 94.4016 82.7964C91.2889 82.7964 88.6006 84.0119 88.6006 87.1246Z" fill="black"/>
<path d="M37.9695 64.7984C37.9695 61.8818 39.3844 61.0618 40.5999 61.0618C41.4488 61.0618 41.9312 61.1486 42.4393 61.6278C43.0631 62.2227 43.1756 62.9012 43.1756 64.2035V72.5224H47.1662V63.8626C47.1662 62.0233 47.0248 60.4959 45.8929 59.3639C44.986 58.4604 43.941 58.0359 42.1273 58.0359C40.3137 58.0359 38.677 58.7144 37.9406 60.4959V58.3735H34.0078V72.5224H37.9695V64.7984Z" fill="black"/>
<path d="M28.7422 83.134V97.2828H32.7038V89.6135C32.7038 88.0572 33.0157 87.1246 33.4691 86.5876C33.9193 86.0763 34.5142 85.8223 35.2217 85.8223C35.7876 85.8223 36.3246 85.8223 36.9195 86.3883C37.598 87.0121 37.6559 87.861 37.6559 89.1634V97.2828H41.6176V89.5299C41.6176 88.1729 41.9006 87.2372 42.3829 86.6423C42.862 86.0763 43.5405 85.8223 44.3348 85.8223C44.9554 85.8223 45.4088 85.9091 45.9748 86.4461C46.5697 87.0121 46.6533 87.9157 46.6533 89.1634V97.2828H50.6149V88.4559C50.6149 84.6357 48.7756 82.7964 45.4956 82.7964C44.1065 82.7964 43.0903 83.0794 42.1835 83.7868C41.5597 84.2659 41.1352 84.8029 40.7976 85.5683C40.2606 83.8704 38.8457 82.7964 36.6944 82.7964C35.3921 82.7964 34.5432 83.1051 33.7521 83.7579C33.3534 84.0955 32.9579 84.5489 32.7038 85.1149V83.134H28.7422Z" fill="black"/>
<path d="M23.8671 72.8632C25.7354 72.8632 27.1214 72.04 27.8577 70.5415V72.5224H31.7036V58.3735H27.7999V66.0718C27.7999 68.9015 26.5554 69.863 25.1952 69.863C24.4041 69.863 23.7835 69.7762 23.2433 69.1845C22.6773 68.5317 22.6227 67.6571 22.6227 66.3548V58.3735H18.5742V66.5509C18.5742 68.4481 18.7446 70.146 19.8476 71.3068C20.8669 72.3809 22.0857 72.8632 23.8671 72.8632Z" fill="black"/>
<path d="M120.965 83.134H116.691L121.56 97.2829H126.087L130.953 83.134H126.737L124.956 89.3595C124.615 90.6329 124.248 92.0767 123.824 93.5752C123.341 91.7101 122.888 90.0959 122.692 89.3595L120.965 83.134Z" fill="black"/>
<path d="M137.544 85.5972C138.675 85.5972 139.212 85.7934 139.579 86.3047C139.949 86.8127 139.92 87.4912 139.92 88.144L136.071 88.8514C133.241 89.3595 130.723 90.2374 130.723 93.2665C130.723 96.2956 132.958 97.6237 135.733 97.6237C137.997 97.6237 139.467 96.6043 140.145 95.3856C140.174 96.0673 140.261 96.7748 140.402 97.2828H144.335V97.1703C144.023 96.5754 143.769 95.8101 143.769 94.7361V87.4655C143.769 84.3785 141.505 82.7964 137.827 82.7964C135.704 82.7964 134.119 83.163 133.016 83.9283C131.855 84.7193 131.231 86.0217 131.231 87.861L135.109 88.144C135.109 86.1632 135.987 85.5972 137.544 85.5972ZM139.92 91.7938C139.92 93.945 138.563 94.8197 136.695 94.8197C135.617 94.8197 134.797 94.3405 134.797 93.2376C134.797 92.1346 135.534 91.7101 136.724 91.4529L139.92 90.7455V91.7938Z" fill="black"/>
<path d="M116.271 72.8632C119.921 72.8632 122.297 71.2779 123.12 68.1073L119.271 67.7696C118.988 69.2392 118.082 70.0592 116.271 70.0592C114.149 70.0592 113.017 68.8437 112.988 66.4673H123.346C123.403 63.6954 122.78 61.4863 121.423 60.0167C120.233 58.7433 118.477 58.0359 116.242 58.0359C114.007 58.0359 112.338 58.6854 111.094 59.901C109.705 61.2322 109.084 63.1552 109.084 65.419C109.084 67.7986 109.763 69.6636 111.12 70.9949C112.31 72.1558 114.065 72.8632 116.271 72.8632ZM113.724 61.8271C114.261 61.1197 115.081 60.7788 116.242 60.7788C117.262 60.7788 117.969 61.0329 118.506 61.5988C119.017 62.139 119.242 62.8722 119.326 63.7501H113.017C113.101 62.988 113.329 62.3352 113.724 61.8271Z" fill="black"/>
<path d="M101.874 72.8632C105.61 72.8632 107.987 70.7666 108.44 67.8822L104.591 67.4867C104.224 69.0141 103.376 69.9177 101.874 69.9177C99.5556 69.9177 98.9061 68.4192 98.9061 65.4479C98.9061 63.8626 99.1022 62.6471 99.6682 61.9107C100.121 61.2901 100.829 60.9782 101.874 60.9782C103.713 60.9782 104.308 62.2805 104.591 63.808L108.357 63.1552C107.791 60.1582 105.781 58.0359 101.874 58.0359C97.2339 58.0359 94.6035 61.0907 94.6035 65.4479C94.6035 70.0881 97.2339 72.8632 101.874 72.8632Z" fill="black"/>
</g>
</g>
</g>
</g>
<defs>
<clipPath id="clip0_1_1013">
<rect width="150" height="150" fill="white"/>
</clipPath>
<clipPath id="clip1_1_1013">
<rect width="150" height="150" fill="white"/>
</clipPath>
<clipPath id="clip2_1_1013">
<rect width="150" height="150" fill="white"/>
</clipPath>
</defs>
</svg>
