<svg width="150" height="150" viewBox="0 0 150 150" fill="none" xmlns="http://www.w3.org/2000/svg">
<g clip-path="url(#clip0_1_988)">
<g clip-path="url(#clip1_1_988)">
<mask id="mask0_1_988" style="mask-type:luminance" maskUnits="userSpaceOnUse" x="1" y="58" width="148" height="34">
<path d="M148.5 58.5H1.5V91.5H148.5V58.5Z" fill="white"/>
</mask>
<g mask="url(#mask0_1_988)">
<path d="M13.9346 70.5067C13.9346 71.9486 13.3254 73.2241 12.3284 74.2223C11.2206 75.3315 9.61436 75.6088 9.61436 76.5515C9.61436 77.8271 11.6637 77.4389 13.63 79.4076C14.9316 80.7108 15.7347 82.43 15.7347 84.4265C15.7347 88.364 12.5776 91.4973 8.61737 91.4973C4.65712 91.4973 1.5 88.3668 1.5 84.4293C1.5 82.4328 2.30313 80.7136 3.60475 79.4104C5.57103 77.4416 7.62039 77.8298 7.62039 76.5543C7.62039 75.6115 6.01413 75.3342 4.90637 74.2251C3.90938 73.2269 3.30011 71.9513 3.30011 70.454C3.30011 67.5702 5.65411 65.241 8.53429 65.241C9.08817 65.241 9.58666 65.3242 10.0021 65.3242C10.7498 65.3242 11.1375 64.9914 11.1375 64.4646C11.1375 64.1595 10.9991 63.7713 10.9991 63.3554C10.9991 62.4126 11.8022 61.6362 12.7715 61.6362C13.7408 61.6362 14.5162 62.4404 14.5162 63.4109C14.5162 64.4368 13.7131 64.9082 13.1038 65.1301C12.6053 65.2964 12.2176 65.5183 12.2176 66.0174C12.2176 66.9574 13.9346 67.8724 13.9346 70.5067ZM13.3807 84.4293C13.3807 81.6841 11.3591 79.4658 8.61737 79.4658C5.87566 79.4658 3.85399 81.6841 3.85399 84.4293C3.85399 87.1467 5.87566 89.3927 8.61737 89.3927C11.3591 89.3927 13.3807 87.1439 13.3807 84.4293ZM11.7468 70.4512C11.7468 68.7043 10.3344 67.2624 8.61737 67.2624C6.90034 67.2624 5.48794 68.7043 5.48794 70.4512C5.48794 72.1981 6.90034 73.64 8.61737 73.64C10.3344 73.64 11.7468 72.1981 11.7468 70.4512Z" fill="black"/>
<path d="M23.905 65.5153C24.7912 65.5153 25.4559 66.1808 25.4559 67.0127C25.4559 67.8445 24.8189 68.51 23.9327 68.51C23.0188 68.51 22.5203 67.9277 21.6064 67.9277C20.7202 67.9277 20.0278 68.5655 20.0278 69.6469V78.3815C20.0278 79.0469 19.5016 79.5738 18.837 79.5738C18.2 79.5738 17.6738 79.0469 17.6738 78.3815V66.6245C17.6738 65.959 18.2 65.4321 18.837 65.4321C20.0278 65.4321 19.8063 66.569 20.9971 66.569C22.1326 66.569 22.548 65.5153 23.905 65.5153Z" fill="black"/>
<path d="M26.4805 72.5029C26.4805 68.3159 29.3607 65.2935 33.3209 65.2935C36.9488 65.2935 39.829 67.9554 39.829 71.5879C39.829 72.4475 39.2751 73.0298 38.472 73.0298H29.4714C29.0837 73.0298 28.9453 73.1684 28.9453 73.4734C28.9453 74.1667 29.4991 75.4422 30.33 76.274C31.1608 77.1059 32.2962 77.605 33.9025 77.605C35.0933 77.605 36.1457 77.1614 36.9488 76.5791C37.1981 76.385 37.475 76.274 37.752 76.274C38.3335 76.274 38.8043 76.8009 38.8043 77.3555C38.8043 77.6882 38.6936 77.9655 38.4166 78.2151C37.2535 79.1856 35.6195 79.7124 33.8471 79.7124C29.5545 79.7124 26.4805 76.6068 26.4805 72.5029ZM36.2842 68.51C35.5087 67.7336 34.5118 67.3454 33.3209 67.3454C32.1301 67.3454 31.0223 67.8168 30.2192 68.6209C29.5822 69.2587 29.1391 70.0905 29.1391 70.6451C29.1391 70.9224 29.3053 71.0333 29.6653 71.0333H36.8657C37.1981 71.0333 37.3642 70.9224 37.3642 70.6451C37.3642 69.9796 36.8381 69.0646 36.2842 68.51Z" fill="black"/>
<path d="M42.2109 72.5029C42.2109 68.3159 45.0911 65.2935 49.0513 65.2935C52.6793 65.2935 55.5594 67.9554 55.5594 71.5879C55.5594 72.4475 55.0056 73.0298 54.2024 73.0298H45.2019C44.8141 73.0298 44.6757 73.1684 44.6757 73.4734C44.6757 74.1667 45.2296 75.4422 46.0604 76.274C46.8912 77.1059 48.0267 77.605 49.6329 77.605C50.8238 77.605 51.8761 77.1614 52.6793 76.5791C52.9285 76.385 53.2054 76.274 53.4824 76.274C54.064 76.274 54.5348 76.8009 54.5348 77.3555C54.5348 77.6882 54.424 77.9655 54.147 78.2151C52.9839 79.1856 51.3499 79.7124 49.5775 79.7124C45.2849 79.7124 42.2109 76.6068 42.2109 72.5029ZM52.0146 68.51C51.2392 67.7336 50.2422 67.3454 49.0513 67.3454C47.8605 67.3454 46.7527 67.8168 45.9496 68.6209C45.3126 69.2587 44.8695 70.0905 44.8695 70.6451C44.8695 70.9224 45.0357 71.0333 45.3957 71.0333H52.5962C52.9285 71.0333 53.0947 70.9224 53.0947 70.6451C53.0947 69.9796 52.5685 69.0646 52.0146 68.51Z" fill="black"/>
<path d="M69.4337 79.5738C68.7691 79.5738 68.2429 79.0469 68.2429 78.3814V70.8392C68.2429 68.8705 66.692 67.3731 64.6981 67.3731C62.6764 67.3731 61.1255 68.8982 61.1255 70.8392V78.3814C61.1255 79.0469 60.5993 79.5738 59.9347 79.5738C59.2977 79.5738 58.7715 79.0469 58.7715 78.3814V66.5967C58.7715 65.9589 59.2977 65.4321 59.907 65.4321C61.0701 65.4321 61.0148 66.4858 61.624 66.4858C62.2333 66.4858 63.0641 65.2935 65.2243 65.2935C68.2429 65.2935 70.5969 67.8168 70.5969 70.8392V78.3814C70.5969 79.0469 70.0707 79.5738 69.4337 79.5738Z" fill="black"/>
<path d="M85.3302 79.5739C84.6656 79.5739 84.1394 79.047 84.1394 78.3815V70.8393C84.1394 68.8706 82.5885 67.3732 80.5945 67.3732C78.5729 67.3732 77.022 68.8983 77.022 70.8393V78.3815C77.022 79.047 76.4958 79.5739 75.8312 79.5739C75.1942 79.5739 74.668 79.047 74.668 78.3815V59.6923C74.668 59.0268 75.1942 58.5 75.8312 58.5C76.4958 58.5 77.022 59.0268 77.022 59.6923V65.8204C77.022 66.1531 77.1605 66.3472 77.5205 66.3472C78.1298 66.3472 78.9606 65.2935 81.1207 65.2935C84.1394 65.2935 86.4934 67.8169 86.4934 70.8393V78.3815C86.4934 79.047 85.9672 79.5739 85.3302 79.5739Z" fill="black"/>
<path d="M89.7305 72.5029C89.7305 68.4823 92.943 65.2935 96.9863 65.2935C101.03 65.2935 104.242 68.4823 104.242 72.5029C104.242 76.5236 101.03 79.7124 96.9863 79.7124C92.9458 79.7124 89.7305 76.5236 89.7305 72.5029ZM101.891 72.5029C101.891 69.7023 99.8139 67.4008 96.9891 67.4008C94.192 67.4008 92.1149 69.7023 92.1149 72.5029C92.1149 75.3035 94.192 77.605 96.9891 77.605C99.8139 77.605 101.891 75.3035 101.891 72.5029Z" fill="black"/>
<path d="M108.646 65.4321C109.31 65.4321 109.836 65.959 109.836 66.6245V74.1667C109.836 76.1354 111.387 77.6328 113.381 77.6328C115.403 77.6328 116.954 76.1077 116.954 74.1667V66.6245C116.954 65.959 117.48 65.4321 118.145 65.4321C118.782 65.4321 119.308 65.959 119.308 66.6245V78.4092C119.308 79.047 118.782 79.5738 118.172 79.5738C117.009 79.5738 117.065 78.5201 116.455 78.5201C115.846 78.5201 115.015 79.7124 112.855 79.7124C109.836 79.7124 107.482 77.1891 107.482 74.1667V66.6245C107.485 65.959 108.009 65.4321 108.646 65.4321Z" fill="black"/>
<path d="M123.49 78.6864C122.964 78.3537 122.604 78.021 122.604 77.3832C122.604 76.7732 123.075 76.3018 123.657 76.3018C124.349 76.3018 124.654 76.7177 125.235 77.0227C125.955 77.4387 126.786 77.6605 127.811 77.6605C129.694 77.6605 130.636 76.8009 130.636 75.7472C130.636 74.2498 129.251 73.9726 127.368 73.4734C125.041 72.8634 122.798 72.1702 122.798 69.4805C122.798 67.0958 124.626 65.2935 127.866 65.2935C129.14 65.2935 130.331 65.6262 131.273 66.2085C131.605 66.4026 131.937 66.8185 131.937 67.2899C131.937 67.9 131.439 68.4268 130.802 68.4268C130.386 68.4268 130.054 68.1495 129.639 67.8722C129.223 67.5949 128.614 67.3454 127.783 67.3454C125.928 67.3454 125.124 68.1495 125.124 69.2309C125.124 70.6451 126.481 70.9779 128.42 71.4492C130.691 72.0038 132.934 72.7248 132.934 75.4699C132.934 77.8546 131.162 79.7124 127.755 79.7124C126.094 79.7124 124.598 79.3797 123.49 78.6864Z" fill="black"/>
<path d="M135.148 72.5029C135.148 68.3159 138.028 65.2935 141.988 65.2935C145.616 65.2935 148.496 67.9554 148.496 71.5879C148.496 72.4475 147.942 73.0298 147.139 73.0298H138.139C137.751 73.0298 137.612 73.1684 137.612 73.4734C137.612 74.1667 138.166 75.4422 138.997 76.274C139.828 77.1059 140.963 77.605 142.57 77.605C143.761 77.605 144.813 77.1614 145.616 76.5791C145.865 76.385 146.142 76.274 146.419 76.274C147.001 76.274 147.472 76.8009 147.472 77.3555C147.472 77.6882 147.361 77.9655 147.084 78.2151C145.921 79.1856 144.287 79.7124 142.514 79.7124C138.224 79.7124 135.148 76.6068 135.148 72.5029ZM144.954 68.51C144.179 67.7336 143.182 67.3454 141.991 67.3454C140.8 67.3454 139.692 67.8168 138.889 68.6209C138.252 69.2587 137.809 70.0905 137.809 70.6451C137.809 70.9224 137.975 71.0333 138.335 71.0333H145.536C145.868 71.0333 146.034 70.9224 146.034 70.6451C146.034 69.9796 145.508 69.0646 144.954 68.51Z" fill="black"/>
</g>
</g>
</g>
<defs>
<clipPath id="clip0_1_988">
<rect width="150" height="150" fill="white"/>
</clipPath>
<clipPath id="clip1_1_988">
<rect width="150" height="150" fill="white"/>
</clipPath>
</defs>
</svg>
