<svg width="24" height="24" viewBox="0 0 24 24" fill="none" xmlns="http://www.w3.org/2000/svg">
<g clip-path="url(#clip0_1_1360)">
<path d="M20 17.6073C21.4937 17.0221 23 15.6889 23 13C23 9 19.6667 8 18 8C18 6 18 2 12 2C6 2 6 6 6 8C4.33333 8 1 9 1 13C1 15.6889 2.50628 17.0221 4 17.6073" stroke="#0F042E" stroke-width="1.5" stroke-linecap="round" stroke-linejoin="round"/>
<path d="M16.4203 19.4876L14.6525 21.2554C13.0904 22.8175 10.5577 22.8175 8.99564 21.2554L8.64209 20.9019" stroke="#0F042E" stroke-width="1.5" stroke-linecap="round" stroke-linejoin="round"/>
<path d="M16.0665 21.9623L16.42 19.4874L13.9452 19.841L16.0665 21.9623Z" stroke="#0F042E" stroke-width="1.5" stroke-linecap="round" stroke-linejoin="round"/>
<path d="M7.57974 16.9015L9.34751 15.1337C10.9096 13.5717 13.4423 13.5717 15.0044 15.1337L15.3579 15.4873" stroke="#0F042E" stroke-width="1.5" stroke-linecap="round" stroke-linejoin="round"/>
<path d="M7.93352 14.4269L7.57996 16.9017L10.0548 16.5482L7.93352 14.4269Z" stroke="#0F042E" stroke-width="1.5" stroke-linecap="round" stroke-linejoin="round"/>
</g>
<defs>
<clipPath id="clip0_1_1360">
<rect width="24" height="24" fill="white"/>
</clipPath>
</defs>
</svg>
