<svg width="24" height="24" viewBox="0 0 24 24" fill="none" xmlns="http://www.w3.org/2000/svg">
<path d="M11.1848 3.00376C11.5183 2.33208 12.4816 2.33208 12.815 3.00376L13.3105 4.00188" stroke="black" stroke-width="1.5" stroke-linecap="round" stroke-linejoin="round"/>
<path d="M12.0002 18.6777L13.5723 19.4998" stroke="black" stroke-width="1.5" stroke-linecap="round" stroke-linejoin="round"/>
<path d="M18.3286 19.3691L18.5136 20.4416C18.6409 21.18 17.8614 21.743 17.1945 21.3943L16.3473 20.9513" stroke="black" stroke-width="1.5" stroke-linecap="round" stroke-linejoin="round"/>
<path d="M17.7476 15.9997L17.5219 14.6915L18.2168 14.0186" stroke="black" stroke-width="1.5" stroke-linecap="round" stroke-linejoin="round"/>
<path d="M20.3012 12.0002L21.7242 10.6221C22.2638 10.0996 21.9668 9.18868 21.2215 9.08037L20.1107 8.91895" stroke="black" stroke-width="1.5" stroke-linecap="round" stroke-linejoin="round"/>
<path d="M17 8.46684L15.4126 8.23615L14.6094 6.61816" stroke="black" stroke-width="1.5" stroke-linecap="round" stroke-linejoin="round"/>
<path d="M8.58737 8.23597L11.1849 3.00376C11.3516 2.66792 11.6758 2.5 12 2.5V18.678L6.80547 21.3941C6.1386 21.7428 5.35909 21.1798 5.48645 20.4414L6.47825 14.6918L2.27575 10.6219C1.73617 10.0994 2.03322 9.18848 2.77852 9.08017L8.58737 8.23597Z" fill="#D9D9D9"/>
<path d="M8.58737 8.23597L11.1849 3.00376C11.3516 2.66792 11.6758 2.5 12 2.5V18.678L6.80547 21.3941C6.1386 21.7428 5.35909 21.1798 5.48645 20.4414L6.47825 14.6918L2.27575 10.6219C1.73617 10.0994 2.03322 9.18848 2.77852 9.08017L8.58737 8.23597Z" fill="#080808"/>
<path d="M8.58737 8.23597L11.1849 3.00376C11.3516 2.66792 11.6758 2.5 12 2.5V18.678L6.80547 21.3941C6.1386 21.7428 5.35909 21.1798 5.48645 20.4414L6.47825 14.6918L2.27575 10.6219C1.73617 10.0994 2.03322 9.18848 2.77852 9.08017L8.58737 8.23597Z" stroke="black" stroke-width="1.5" stroke-linecap="round" stroke-linejoin="round"/>
</svg>
