<svg width="20" height="20" viewBox="0 0 20 20" fill="none" xmlns="http://www.w3.org/2000/svg">
<path d="M13.334 6.66669C14.6601 6.66669 15.9318 7.19347 16.8695 8.13115C17.8072 9.06884 18.334 10.3406 18.334 11.6667V17.5H15.0007V11.6667C15.0007 11.2247 14.8251 10.8007 14.5125 10.4882C14.1999 10.1756 13.776 10 13.334 10C12.892 10 12.468 10.1756 12.1555 10.4882C11.8429 10.8007 11.6673 11.2247 11.6673 11.6667V17.5H8.33398V11.6667C8.33398 10.3406 8.86077 9.06884 9.79845 8.13115C10.7361 7.19347 12.0079 6.66669 13.334 6.66669Z" stroke="#9CA3AF" stroke-width="1.66667" stroke-linecap="round" stroke-linejoin="round"/>
<path d="M4.99935 7.5H1.66602V17.5H4.99935V7.5Z" stroke="#9CA3AF" stroke-width="1.66667" stroke-linecap="round" stroke-linejoin="round"/>
<path d="M3.33268 5.00002C4.25316 5.00002 4.99935 4.25383 4.99935 3.33335C4.99935 2.41288 4.25316 1.66669 3.33268 1.66669C2.41221 1.66669 1.66602 2.41288 1.66602 3.33335C1.66602 4.25383 2.41221 5.00002 3.33268 5.00002Z" stroke="#9CA3AF" stroke-width="1.66667" stroke-linecap="round" stroke-linejoin="round"/>
</svg>
