<svg width="234" height="50" viewBox="0 0 234 50" fill="none" xmlns="http://www.w3.org/2000/svg">
<rect width="234" height="50" rx="25" fill="#F0EBFD"/>
<rect x="8" y="8" width="59" height="34" rx="17" fill="#4C15E9"/>
<path d="M25.4237 30V21.06H26.4077L31.5437 28.284L31.0997 28.332V21.06H32.2877V30H31.3037L26.1917 22.728L26.5997 22.68V30H25.4237ZM37.1271 30.144C36.5031 30.144 35.9471 29.996 35.4591 29.7C34.9711 29.404 34.5871 29 34.3071 28.488C34.0271 27.968 33.8871 27.388 33.8871 26.748C33.8871 26.1 34.0231 25.524 34.2951 25.02C34.5751 24.516 34.9511 24.12 35.4231 23.832C35.9031 23.536 36.4391 23.388 37.0311 23.388C37.5111 23.388 37.9351 23.476 38.3031 23.652C38.6791 23.82 38.9951 24.052 39.2511 24.348C39.5151 24.636 39.7151 24.968 39.8511 25.344C39.9951 25.712 40.0671 26.096 40.0671 26.496C40.0671 26.584 40.0591 26.684 40.0431 26.796C40.0351 26.9 40.0231 27 40.0071 27.096H34.7031V26.136H39.3591L38.8311 26.568C38.9031 26.152 38.8631 25.78 38.7111 25.452C38.5591 25.124 38.3351 24.864 38.0391 24.672C37.7431 24.48 37.4071 24.384 37.0311 24.384C36.6551 24.384 36.3111 24.48 35.9991 24.672C35.6871 24.864 35.4431 25.14 35.2671 25.5C35.0991 25.852 35.0311 26.272 35.0631 26.76C35.0311 27.232 35.1031 27.648 35.2791 28.008C35.4631 28.36 35.7191 28.636 36.0471 28.836C36.3831 29.028 36.7471 29.124 37.1391 29.124C37.5711 29.124 37.9351 29.024 38.2311 28.824C38.5271 28.624 38.7671 28.368 38.9511 28.056L39.8871 28.536C39.7591 28.832 39.5591 29.104 39.2871 29.352C39.0231 29.592 38.7071 29.784 38.3391 29.928C37.9791 30.072 37.5751 30.144 37.1271 30.144ZM43.0102 30L40.7902 23.532H42.0262L43.7902 28.944L43.3582 28.932L45.0862 23.532H46.1422L47.8702 28.932L47.4382 28.944L49.2142 23.532H50.4382L48.2182 30H47.1502L45.4462 24.6H45.7822L44.0782 30H43.0102Z" fill="white"/>
<path d="M72.3605 30L75.5645 21.06H76.9565L80.1605 30H78.9005L78.1685 27.9H74.3525L73.6205 30H72.3605ZM74.7245 26.82H77.7965L76.0925 21.912H76.4285L74.7245 26.82ZM81.287 30V21.06H82.463V30H81.287ZM84.4031 27.276V26.256H88.9031V27.276H84.4031ZM90.8378 30V21.06H93.9938C94.5858 21.06 95.1058 21.172 95.5538 21.396C96.0018 21.62 96.3498 21.94 96.5978 22.356C96.8538 22.772 96.9818 23.26 96.9818 23.82C96.9818 24.38 96.8538 24.868 96.5978 25.284C96.3498 25.692 96.0018 26.012 95.5538 26.244C95.1138 26.468 94.5938 26.58 93.9938 26.58H92.0138V30H90.8378ZM92.0138 25.5H94.0298C94.3898 25.5 94.7018 25.432 94.9658 25.296C95.2298 25.16 95.4338 24.964 95.5778 24.708C95.7218 24.452 95.7938 24.156 95.7938 23.82C95.7938 23.476 95.7218 23.18 95.5778 22.932C95.4338 22.676 95.2298 22.48 94.9658 22.344C94.7018 22.208 94.3898 22.14 94.0298 22.14H92.0138V25.5ZM101.278 30.144C100.654 30.144 100.09 30 99.5858 29.712C99.0818 29.416 98.6818 29.012 98.3858 28.5C98.0898 27.988 97.9418 27.408 97.9418 26.76C97.9418 26.112 98.0858 25.536 98.3738 25.032C98.6698 24.528 99.0698 24.128 99.5738 23.832C100.078 23.536 100.646 23.388 101.278 23.388C101.902 23.388 102.466 23.536 102.97 23.832C103.474 24.12 103.87 24.516 104.158 25.02C104.454 25.524 104.602 26.104 104.602 26.76C104.602 27.416 104.45 28 104.146 28.512C103.842 29.016 103.438 29.416 102.934 29.712C102.438 30 101.886 30.144 101.278 30.144ZM101.278 29.064C101.678 29.064 102.038 28.964 102.358 28.764C102.686 28.564 102.942 28.288 103.126 27.936C103.318 27.584 103.414 27.192 103.414 26.76C103.414 26.32 103.318 25.932 103.126 25.596C102.942 25.252 102.686 24.98 102.358 24.78C102.038 24.572 101.678 24.468 101.278 24.468C100.87 24.468 100.502 24.572 100.174 24.78C99.8538 24.98 99.5978 25.252 99.4058 25.596C99.2138 25.932 99.1178 26.32 99.1178 26.76C99.1178 27.192 99.2138 27.584 99.4058 27.936C99.5978 28.288 99.8538 28.564 100.174 28.764C100.502 28.964 100.87 29.064 101.278 29.064ZM107.428 30L105.208 23.532H106.444L108.208 28.944L107.776 28.932L109.504 23.532H110.56L112.288 28.932L111.856 28.944L113.632 23.532H114.856L112.636 30H111.568L109.864 24.6H110.2L108.496 30H107.428ZM118.713 30.144C118.089 30.144 117.533 29.996 117.045 29.7C116.557 29.404 116.173 29 115.893 28.488C115.613 27.968 115.473 27.388 115.473 26.748C115.473 26.1 115.609 25.524 115.881 25.02C116.161 24.516 116.537 24.12 117.009 23.832C117.489 23.536 118.025 23.388 118.617 23.388C119.097 23.388 119.521 23.476 119.889 23.652C120.265 23.82 120.581 24.052 120.837 24.348C121.101 24.636 121.301 24.968 121.437 25.344C121.581 25.712 121.653 26.096 121.653 26.496C121.653 26.584 121.645 26.684 121.629 26.796C121.621 26.9 121.609 27 121.593 27.096H116.289V26.136H120.945L120.417 26.568C120.489 26.152 120.449 25.78 120.297 25.452C120.145 25.124 119.921 24.864 119.625 24.672C119.329 24.48 118.993 24.384 118.617 24.384C118.241 24.384 117.897 24.48 117.585 24.672C117.273 24.864 117.029 25.14 116.853 25.5C116.685 25.852 116.617 26.272 116.649 26.76C116.617 27.232 116.689 27.648 116.865 28.008C117.049 28.36 117.305 28.636 117.633 28.836C117.969 29.028 118.333 29.124 118.725 29.124C119.157 29.124 119.521 29.024 119.817 28.824C120.113 28.624 120.353 28.368 120.537 28.056L121.473 28.536C121.345 28.832 121.145 29.104 120.873 29.352C120.609 29.592 120.293 29.784 119.925 29.928C119.565 30.072 119.161 30.144 118.713 30.144ZM123.108 30V23.532H124.2V24.72L124.08 24.552C124.232 24.184 124.464 23.912 124.776 23.736C125.088 23.552 125.468 23.46 125.916 23.46H126.312V24.516H125.748C125.292 24.516 124.924 24.66 124.644 24.948C124.364 25.228 124.224 25.628 124.224 26.148V30H123.108ZM130.279 30.144C129.655 30.144 129.099 29.996 128.611 29.7C128.123 29.404 127.739 29 127.459 28.488C127.179 27.968 127.039 27.388 127.039 26.748C127.039 26.1 127.175 25.524 127.447 25.02C127.727 24.516 128.103 24.12 128.575 23.832C129.055 23.536 129.591 23.388 130.183 23.388C130.663 23.388 131.087 23.476 131.455 23.652C131.831 23.82 132.147 24.052 132.403 24.348C132.667 24.636 132.867 24.968 133.003 25.344C133.147 25.712 133.219 26.096 133.219 26.496C133.219 26.584 133.211 26.684 133.195 26.796C133.187 26.9 133.175 27 133.159 27.096H127.855V26.136H132.511L131.983 26.568C132.055 26.152 132.015 25.78 131.863 25.452C131.711 25.124 131.487 24.864 131.191 24.672C130.895 24.48 130.559 24.384 130.183 24.384C129.807 24.384 129.463 24.48 129.151 24.672C128.839 24.864 128.595 25.14 128.419 25.5C128.251 25.852 128.183 26.272 128.215 26.76C128.183 27.232 128.255 27.648 128.431 28.008C128.615 28.36 128.871 28.636 129.199 28.836C129.535 29.028 129.899 29.124 130.291 29.124C130.723 29.124 131.087 29.024 131.383 28.824C131.679 28.624 131.919 28.368 132.103 28.056L133.039 28.536C132.911 28.832 132.711 29.104 132.439 29.352C132.175 29.592 131.859 29.784 131.491 29.928C131.131 30.072 130.727 30.144 130.279 30.144ZM137.615 30.144C137.007 30.144 136.459 29.996 135.971 29.7C135.491 29.404 135.111 29 134.831 28.488C134.551 27.976 134.411 27.404 134.411 26.772C134.411 26.124 134.551 25.548 134.831 25.044C135.111 24.532 135.491 24.128 135.971 23.832C136.459 23.536 137.007 23.388 137.615 23.388C138.151 23.388 138.627 23.504 139.043 23.736C139.459 23.96 139.787 24.264 140.027 24.648L139.847 24.924V20.916H140.975V30H139.883V28.62L140.027 28.812C139.803 29.236 139.475 29.564 139.043 29.796C138.619 30.028 138.143 30.144 137.615 30.144ZM137.711 29.064C138.119 29.064 138.483 28.964 138.803 28.764C139.123 28.564 139.375 28.292 139.559 27.948C139.751 27.596 139.847 27.204 139.847 26.772C139.847 26.332 139.751 25.94 139.559 25.596C139.375 25.244 139.123 24.968 138.803 24.768C138.483 24.568 138.119 24.468 137.711 24.468C137.311 24.468 136.947 24.572 136.619 24.78C136.299 24.98 136.047 25.252 135.863 25.596C135.679 25.932 135.587 26.324 135.587 26.772C135.587 27.204 135.679 27.596 135.863 27.948C136.047 28.292 136.299 28.564 136.619 28.764C136.939 28.964 137.303 29.064 137.711 29.064ZM144.908 30V21.06H146.084V30H144.908ZM147.94 30V23.532H149.032V24.792L148.852 24.684C149.012 24.276 149.268 23.96 149.62 23.736C149.98 23.504 150.4 23.388 150.88 23.388C151.344 23.388 151.756 23.492 152.116 23.7C152.484 23.908 152.772 24.196 152.98 24.564C153.196 24.932 153.304 25.348 153.304 25.812V30H152.176V26.172C152.176 25.812 152.112 25.508 151.984 25.26C151.856 25.012 151.672 24.82 151.432 24.684C151.2 24.54 150.932 24.468 150.628 24.468C150.324 24.468 150.052 24.54 149.812 24.684C149.58 24.82 149.396 25.016 149.26 25.272C149.124 25.52 149.056 25.82 149.056 26.172V30H147.94ZM157.217 30.144C156.569 30.144 156.005 29.984 155.525 29.664C155.045 29.344 154.705 28.912 154.505 28.368L155.393 27.936C155.577 28.32 155.829 28.624 156.149 28.848C156.469 29.072 156.825 29.184 157.217 29.184C157.569 29.184 157.861 29.1 158.093 28.932C158.325 28.764 158.441 28.544 158.441 28.272C158.441 28.08 158.385 27.928 158.273 27.816C158.169 27.696 158.041 27.604 157.889 27.54C157.737 27.468 157.597 27.416 157.469 27.384L156.497 27.108C155.913 26.94 155.485 26.7 155.213 26.388C154.949 26.076 154.817 25.712 154.817 25.296C154.817 24.912 154.913 24.58 155.105 24.3C155.305 24.012 155.573 23.788 155.909 23.628C156.253 23.468 156.637 23.388 157.061 23.388C157.629 23.388 158.137 23.532 158.585 23.82C159.041 24.108 159.365 24.512 159.557 25.032L158.645 25.452C158.501 25.116 158.285 24.852 157.997 24.66C157.709 24.46 157.385 24.36 157.025 24.36C156.697 24.36 156.437 24.444 156.245 24.612C156.053 24.772 155.957 24.976 155.957 25.224C155.957 25.408 156.005 25.56 156.101 25.68C156.197 25.792 156.313 25.88 156.449 25.944C156.585 26 156.717 26.048 156.845 26.088L157.901 26.4C158.429 26.552 158.837 26.788 159.125 27.108C159.421 27.428 159.569 27.812 159.569 28.26C159.569 28.62 159.469 28.944 159.269 29.232C159.069 29.52 158.793 29.744 158.441 29.904C158.089 30.064 157.681 30.144 157.217 30.144ZM161.03 30V23.532H162.146V30H161.03ZM161.03 22.5V21.06H162.146V22.5H161.03ZM166.962 32.64C166.506 32.64 166.082 32.568 165.69 32.424C165.306 32.28 164.974 32.08 164.694 31.824C164.422 31.576 164.214 31.284 164.07 30.948L165.114 30.468C165.226 30.772 165.438 31.028 165.75 31.236C166.07 31.452 166.47 31.56 166.95 31.56C167.318 31.56 167.65 31.488 167.946 31.344C168.25 31.208 168.49 31 168.666 30.72C168.842 30.448 168.93 30.116 168.93 29.724V28.272L169.134 28.488C168.91 28.928 168.586 29.264 168.162 29.496C167.746 29.728 167.286 29.844 166.782 29.844C166.174 29.844 165.63 29.704 165.15 29.424C164.67 29.136 164.294 28.748 164.022 28.26C163.75 27.764 163.614 27.216 163.614 26.616C163.614 26.008 163.75 25.46 164.022 24.972C164.294 24.484 164.666 24.1 165.138 23.82C165.618 23.532 166.162 23.388 166.77 23.388C167.274 23.388 167.73 23.504 168.138 23.736C168.554 23.96 168.886 24.272 169.134 24.672L168.966 24.972V23.532H170.058V29.724C170.058 30.284 169.926 30.784 169.662 31.224C169.398 31.664 169.03 32.008 168.558 32.256C168.094 32.512 167.562 32.64 166.962 32.64ZM166.878 28.764C167.262 28.764 167.606 28.668 167.91 28.476C168.222 28.284 168.47 28.028 168.654 27.708C168.838 27.38 168.93 27.016 168.93 26.616C168.93 26.224 168.838 25.864 168.654 25.536C168.47 25.208 168.222 24.948 167.91 24.756C167.606 24.564 167.262 24.468 166.878 24.468C166.486 24.468 166.13 24.564 165.81 24.756C165.49 24.948 165.238 25.208 165.054 25.536C164.878 25.856 164.79 26.216 164.79 26.616C164.79 27.016 164.878 27.38 165.054 27.708C165.238 28.028 165.486 28.284 165.798 28.476C166.118 28.668 166.478 28.764 166.878 28.764ZM171.788 30V20.916H172.904V24.792L172.7 24.684C172.86 24.276 173.116 23.96 173.468 23.736C173.828 23.504 174.248 23.388 174.728 23.388C175.192 23.388 175.604 23.492 175.964 23.7C176.332 23.908 176.62 24.196 176.828 24.564C177.044 24.932 177.152 25.348 177.152 25.812V30H176.024V26.172C176.024 25.812 175.956 25.508 175.82 25.26C175.692 25.012 175.512 24.82 175.28 24.684C175.048 24.54 174.78 24.468 174.476 24.468C174.18 24.468 173.912 24.54 173.672 24.684C173.432 24.82 173.244 25.016 173.108 25.272C172.972 25.52 172.904 25.82 172.904 26.172V30H171.788ZM181.377 30.072C180.745 30.072 180.257 29.892 179.913 29.532C179.577 29.172 179.409 28.664 179.409 28.008V24.6H178.233V23.532H178.473C178.761 23.532 178.989 23.444 179.157 23.268C179.325 23.092 179.409 22.86 179.409 22.572V22.044H180.525V23.532H181.977V24.6H180.525V27.972C180.525 28.188 180.557 28.376 180.621 28.536C180.693 28.696 180.809 28.824 180.969 28.92C181.129 29.008 181.341 29.052 181.605 29.052C181.661 29.052 181.729 29.048 181.809 29.04C181.897 29.032 181.977 29.024 182.049 29.016V30C181.945 30.024 181.829 30.04 181.701 30.048C181.573 30.064 181.465 30.072 181.377 30.072ZM185.823 30.144C185.175 30.144 184.611 29.984 184.131 29.664C183.651 29.344 183.311 28.912 183.111 28.368L183.999 27.936C184.183 28.32 184.435 28.624 184.755 28.848C185.075 29.072 185.431 29.184 185.823 29.184C186.175 29.184 186.467 29.1 186.699 28.932C186.931 28.764 187.047 28.544 187.047 28.272C187.047 28.08 186.991 27.928 186.879 27.816C186.775 27.696 186.647 27.604 186.495 27.54C186.343 27.468 186.203 27.416 186.075 27.384L185.103 27.108C184.519 26.94 184.091 26.7 183.819 26.388C183.555 26.076 183.423 25.712 183.423 25.296C183.423 24.912 183.519 24.58 183.711 24.3C183.911 24.012 184.179 23.788 184.515 23.628C184.859 23.468 185.243 23.388 185.667 23.388C186.235 23.388 186.743 23.532 187.191 23.82C187.647 24.108 187.971 24.512 188.163 25.032L187.251 25.452C187.107 25.116 186.891 24.852 186.603 24.66C186.315 24.46 185.991 24.36 185.631 24.36C185.303 24.36 185.043 24.444 184.851 24.612C184.659 24.772 184.563 24.976 184.563 25.224C184.563 25.408 184.611 25.56 184.707 25.68C184.803 25.792 184.919 25.88 185.055 25.944C185.191 26 185.323 26.048 185.451 26.088L186.507 26.4C187.035 26.552 187.443 26.788 187.731 27.108C188.027 27.428 188.175 27.812 188.175 28.26C188.175 28.62 188.075 28.944 187.875 29.232C187.675 29.52 187.399 29.744 187.047 29.904C186.695 30.064 186.287 30.144 185.823 30.144Z" fill="#0F042E"/>
<path d="M201.999 25H218.666M218.666 25L210.666 17M218.666 25L210.666 33" stroke="#0F042E" stroke-width="1.5" stroke-linecap="round" stroke-linejoin="round"/>
</svg>
