<svg width="286" height="32" viewBox="0 0 286 32" fill="none" xmlns="http://www.w3.org/2000/svg">
<path d="M28.5597 14.5627C28.7984 14.4574 29.001 14.2844 29.1423 14.0651C29.2836 13.8459 29.3575 13.5899 29.3548 13.3291C29.3521 13.0682 29.273 12.8138 29.1271 12.5975C28.9813 12.3812 28.7752 12.2124 28.5344 12.1121L17.1064 6.90674C16.759 6.74827 16.3816 6.66626 15.9997 6.66626C15.6179 6.66626 15.2405 6.74827 14.8931 6.90674L3.4664 12.1067C3.22902 12.2107 3.02709 12.3816 2.88529 12.5985C2.74349 12.8154 2.66797 13.0689 2.66797 13.3281C2.66797 13.5872 2.74349 13.8407 2.88529 14.0576C3.02709 14.2746 3.22902 14.4454 3.4664 14.5494L14.8931 19.7601C15.2405 19.9185 15.6179 20.0005 15.9997 20.0005C16.3816 20.0005 16.759 19.9185 17.1064 19.7601L28.5597 14.5627Z" stroke="#818CF8" stroke-width="2.66667" stroke-linecap="round" stroke-linejoin="round"/>
<path d="M29.334 13.3333V21.3333" stroke="#818CF8" stroke-width="2.66667" stroke-linecap="round" stroke-linejoin="round"/>
<path d="M8 16.6667V21.3334C8 22.3943 8.84286 23.4117 10.3431 24.1618C11.8434 24.912 13.8783 25.3334 16 25.3334C18.1217 25.3334 20.1566 24.912 21.6569 24.1618C23.1571 23.4117 24 22.3943 24 21.3334V16.6667" stroke="#818CF8" stroke-width="2.66667" stroke-linecap="round" stroke-linejoin="round"/>
<path d="M59.1548 12.6378C59.098 12.0649 58.8542 11.6198 58.4233 11.3026C57.9924 10.9853 57.4077 10.8267 56.669 10.8267C56.1671 10.8267 55.7434 10.8977 55.3977 11.0398C55.0521 11.1771 54.7869 11.3688 54.6023 11.6151C54.4223 11.8613 54.3324 12.1406 54.3324 12.4531C54.3229 12.7135 54.3774 12.9408 54.4957 13.1349C54.6188 13.3291 54.7869 13.4972 55 13.6392C55.2131 13.7765 55.4593 13.8973 55.7386 14.0014C56.018 14.1009 56.3163 14.1861 56.6335 14.2571L57.9403 14.5696C58.5748 14.7116 59.1572 14.901 59.6875 15.1378C60.2178 15.3745 60.6771 15.6657 61.0653 16.0114C61.4536 16.357 61.7543 16.7642 61.9673 17.233C62.1851 17.7017 62.2964 18.2391 62.3011 18.8452C62.2964 19.7353 62.0691 20.5071 61.6193 21.1605C61.1742 21.8092 60.5303 22.3134 59.6875 22.6733C58.8494 23.0284 57.8385 23.206 56.6548 23.206C55.4806 23.206 54.4579 23.026 53.5866 22.6662C52.7202 22.3063 52.0431 21.7737 51.5554 21.0682C51.0724 20.358 50.8191 19.4796 50.7955 18.4332H53.7713C53.8045 18.9209 53.9441 19.3281 54.1903 19.6548C54.4413 19.9768 54.7751 20.2206 55.1918 20.3864C55.6132 20.5473 56.089 20.6278 56.6193 20.6278C57.1402 20.6278 57.5923 20.5521 57.9759 20.4006C58.3641 20.2491 58.6648 20.0384 58.8778 19.7685C59.0909 19.4986 59.1974 19.1884 59.1974 18.8381C59.1974 18.5114 59.1004 18.2367 58.9062 18.0142C58.7169 17.7917 58.4375 17.6023 58.0682 17.446C57.7036 17.2898 57.2562 17.1477 56.7259 17.0199L55.142 16.6222C53.9157 16.3239 52.9474 15.8575 52.2372 15.223C51.527 14.5885 51.1742 13.7339 51.179 12.6591C51.1742 11.7784 51.4086 11.009 51.8821 10.3509C52.3603 9.69271 53.0161 9.17898 53.8494 8.80966C54.6828 8.44034 55.6297 8.25568 56.6903 8.25568C57.7699 8.25568 58.7121 8.44034 59.517 8.80966C60.3267 9.17898 60.9564 9.69271 61.4062 10.3509C61.8561 11.009 62.0881 11.7713 62.1023 12.6378H59.1548ZM67.1143 19.8608L67.1214 16.2315H67.5618L71.0561 12.0909H74.5291L69.8345 17.5739H69.1172L67.1143 19.8608ZM64.3729 23V8.45455H67.3984V23H64.3729ZM71.191 23L67.9808 18.2486L69.9979 16.1108L74.7351 23H71.191ZM80.5532 23.2131C79.45 23.2131 78.4959 22.9787 77.691 22.5099C76.8908 22.0365 76.2729 21.3783 75.8373 20.5355C75.4017 19.688 75.1839 18.7055 75.1839 17.5881C75.1839 16.4612 75.4017 15.4763 75.8373 14.6335C76.2729 13.786 76.8908 13.1278 77.691 12.6591C78.4959 12.1856 79.45 11.9489 80.5532 11.9489C81.6565 11.9489 82.6082 12.1856 83.4084 12.6591C84.2133 13.1278 84.8335 13.786 85.2691 14.6335C85.7048 15.4763 85.9226 16.4612 85.9226 17.5881C85.9226 18.7055 85.7048 19.688 85.2691 20.5355C84.8335 21.3783 84.2133 22.0365 83.4084 22.5099C82.6082 22.9787 81.6565 23.2131 80.5532 23.2131ZM80.5674 20.8693C81.0693 20.8693 81.4884 20.7273 81.8245 20.4432C82.1607 20.1544 82.414 19.7614 82.5845 19.2642C82.7597 18.767 82.8473 18.2012 82.8473 17.5668C82.8473 16.9323 82.7597 16.3665 82.5845 15.8693C82.414 15.3722 82.1607 14.9792 81.8245 14.6903C81.4884 14.4015 81.0693 14.2571 80.5674 14.2571C80.0608 14.2571 79.6347 14.4015 79.289 14.6903C78.9481 14.9792 78.6901 15.3722 78.5149 15.8693C78.3444 16.3665 78.2592 16.9323 78.2592 17.5668C78.2592 18.2012 78.3444 18.767 78.5149 19.2642C78.6901 19.7614 78.9481 20.1544 79.289 20.4432C79.6347 20.7273 80.0608 20.8693 80.5674 20.8693ZM92.8789 23.2131C91.7756 23.2131 90.8216 22.9787 90.0166 22.5099C89.2165 22.0365 88.5986 21.3783 88.163 20.5355C87.7273 19.688 87.5095 18.7055 87.5095 17.5881C87.5095 16.4612 87.7273 15.4763 88.163 14.6335C88.5986 13.786 89.2165 13.1278 90.0166 12.6591C90.8216 12.1856 91.7756 11.9489 92.8789 11.9489C93.9821 11.9489 94.9338 12.1856 95.734 12.6591C96.5389 13.1278 97.1592 13.786 97.5948 14.6335C98.0304 15.4763 98.2482 16.4612 98.2482 17.5881C98.2482 18.7055 98.0304 19.688 97.5948 20.5355C97.1592 21.3783 96.5389 22.0365 95.734 22.5099C94.9338 22.9787 93.9821 23.2131 92.8789 23.2131ZM92.8931 20.8693C93.395 20.8693 93.814 20.7273 94.1502 20.4432C94.4863 20.1544 94.7397 19.7614 94.9101 19.2642C95.0853 18.767 95.1729 18.2012 95.1729 17.5668C95.1729 16.9323 95.0853 16.3665 94.9101 15.8693C94.7397 15.3722 94.4863 14.9792 94.1502 14.6903C93.814 14.4015 93.395 14.2571 92.8931 14.2571C92.3864 14.2571 91.9603 14.4015 91.6147 14.6903C91.2738 14.9792 91.0157 15.3722 90.8405 15.8693C90.6701 16.3665 90.5848 16.9323 90.5848 17.5668C90.5848 18.2012 90.6701 18.767 90.8405 19.2642C91.0157 19.7614 91.2738 20.1544 91.6147 20.4432C91.9603 20.7273 92.3864 20.8693 92.8931 20.8693ZM103.301 8.45455V23H100.276V8.45455H103.301ZM122.697 8.45455V23H120.04L113.712 13.8452H113.606V23H110.53V8.45455H113.229L119.508 17.6023H119.636V8.45455H122.697ZM130.212 23.2131C129.09 23.2131 128.124 22.9858 127.315 22.5312C126.51 22.072 125.889 21.4233 125.454 20.5852C125.018 19.7424 124.8 18.7457 124.8 17.5952C124.8 16.473 125.018 15.4882 125.454 14.6406C125.889 13.7931 126.503 13.1326 127.293 12.6591C128.089 12.1856 129.021 11.9489 130.092 11.9489C130.811 11.9489 131.481 12.0649 132.101 12.2969C132.726 12.5241 133.271 12.8674 133.735 13.3267C134.204 13.786 134.568 14.3636 134.829 15.0597C135.089 15.7509 135.219 16.5606 135.219 17.4886V18.3196H126.008V16.4446H132.371C132.371 16.009 132.277 15.6231 132.087 15.2869C131.898 14.9508 131.635 14.688 131.299 14.4986C130.967 14.3045 130.582 14.2074 130.141 14.2074C129.682 14.2074 129.275 14.3139 128.92 14.527C128.569 14.7353 128.295 15.017 128.096 15.3722C127.897 15.7225 127.795 16.1132 127.79 16.544V18.3267C127.79 18.8665 127.89 19.3329 128.089 19.7259C128.292 20.1188 128.579 20.4219 128.948 20.6349C129.317 20.848 129.755 20.9545 130.262 20.9545C130.598 20.9545 130.906 20.9072 131.185 20.8125C131.465 20.7178 131.704 20.5758 131.903 20.3864C132.101 20.197 132.253 19.965 132.357 19.6903L135.155 19.875C135.013 20.5473 134.722 21.1345 134.282 21.6364C133.846 22.1335 133.283 22.5218 132.592 22.8011C131.905 23.0758 131.112 23.2131 130.212 23.2131ZM139.587 12.0909L141.59 15.9048L143.642 12.0909H146.746L143.585 17.5455L146.831 23H143.742L141.59 19.2287L139.473 23H136.348L139.587 17.5455L136.462 12.0909H139.587ZM155.599 18.3551V12.0909H158.624V23H155.719V21.0185H155.606C155.359 21.6577 154.95 22.1714 154.377 22.5597C153.809 22.9479 153.115 23.142 152.296 23.142C151.567 23.142 150.925 22.9763 150.371 22.6449C149.817 22.3134 149.384 21.8423 149.072 21.2315C148.764 20.6207 148.608 19.8892 148.603 19.0369V12.0909H151.628V18.4972C151.633 19.1411 151.806 19.6501 152.147 20.0241C152.488 20.3982 152.945 20.5852 153.518 20.5852C153.882 20.5852 154.223 20.5024 154.54 20.3366C154.858 20.1662 155.113 19.9152 155.307 19.5838C155.506 19.2524 155.603 18.8428 155.599 18.3551ZM170.181 15.2017L167.411 15.3722C167.364 15.1354 167.262 14.9223 167.106 14.733C166.949 14.5388 166.743 14.3849 166.488 14.2713C166.237 14.1529 165.936 14.0938 165.586 14.0938C165.117 14.0938 164.722 14.1932 164.4 14.392C164.078 14.5862 163.917 14.8466 163.917 15.1733C163.917 15.4337 164.021 15.6539 164.229 15.8338C164.438 16.0137 164.795 16.1581 165.302 16.267L167.276 16.6648C168.337 16.8826 169.127 17.233 169.648 17.7159C170.169 18.1989 170.43 18.8333 170.43 19.6193C170.43 20.3343 170.219 20.9616 169.797 21.5014C169.381 22.0412 168.808 22.4626 168.079 22.7656C167.354 23.0639 166.519 23.2131 165.572 23.2131C164.127 23.2131 162.977 22.9124 162.12 22.3111C161.268 21.705 160.768 20.8812 160.621 19.8395L163.597 19.6832C163.687 20.1236 163.905 20.4598 164.251 20.6918C164.596 20.919 165.039 21.0327 165.579 21.0327C166.109 21.0327 166.535 20.9309 166.857 20.7273C167.184 20.5189 167.35 20.2514 167.354 19.9247C167.35 19.6501 167.234 19.4252 167.006 19.25C166.779 19.0701 166.429 18.9328 165.955 18.8381L164.066 18.4616C163.001 18.2486 162.207 17.8793 161.687 17.3537C161.171 16.8281 160.912 16.1581 160.912 15.3438C160.912 14.643 161.102 14.0393 161.481 13.5327C161.864 13.026 162.402 12.6354 163.093 12.3608C163.789 12.0862 164.603 11.9489 165.536 11.9489C166.914 11.9489 167.998 12.2401 168.789 12.8224C169.584 13.4048 170.048 14.1979 170.181 15.2017Z" fill="white"/>
</svg>
