<svg width="48" height="48" viewBox="0 0 48 48" fill="none" xmlns="http://www.w3.org/2000/svg">
<rect width="48" height="48" rx="6" fill="#16A34A"/>
<path d="M33.4208 22.9221C33.5998 22.8431 33.7517 22.7134 33.8577 22.5489C33.9637 22.3845 34.0191 22.1925 34.0171 21.9969C34.0151 21.8012 33.9557 21.6104 33.8463 21.4482C33.737 21.286 33.5824 21.1594 33.4018 21.0841L24.8308 17.1801C24.5702 17.0613 24.2872 16.9998 24.0008 16.9998C23.7144 16.9998 23.4313 17.0613 23.1708 17.1801L14.6008 21.0801C14.4227 21.1581 14.2713 21.2862 14.1649 21.4489C14.0586 21.6116 14.002 21.8018 14.002 21.9961C14.002 22.1905 14.0586 22.3806 14.1649 22.5433C14.2713 22.706 14.4227 22.8341 14.6008 22.9121L23.1708 26.8201C23.4313 26.939 23.7144 27.0005 24.0008 27.0005C24.2872 27.0005 24.5702 26.939 24.8308 26.8201L33.4208 22.9221Z" stroke="white" stroke-width="2" stroke-linecap="round" stroke-linejoin="round"/>
<path d="M34 22V28" stroke="white" stroke-width="2" stroke-linecap="round" stroke-linejoin="round"/>
<path d="M18 24.5V28C18 28.7956 18.6321 29.5587 19.7574 30.1213C20.8826 30.6839 22.4087 31 24 31C25.5913 31 27.1174 30.6839 28.2426 30.1213C29.3679 29.5587 30 28.7956 30 28V24.5" stroke="white" stroke-width="2" stroke-linecap="round" stroke-linejoin="round"/>
</svg>
