<svg width="58" height="58" viewBox="0 0 58 58" fill="none" xmlns="http://www.w3.org/2000/svg">
<g filter="url(#filter0_dd_2009_388)">
<rect x="5" y="1" width="48" height="48" rx="24" fill="#22C55E"/>
<path d="M24.5 17.27L33.5 22.42" stroke="white" stroke-width="2" stroke-linecap="round" stroke-linejoin="round"/>
<path d="M38 20.9999C37.9996 20.6492 37.9071 20.3047 37.7315 20.0011C37.556 19.6974 37.3037 19.4453 37 19.2699L30 15.2699C29.696 15.0944 29.3511 15.002 29 15.002C28.6489 15.002 28.304 15.0944 28 15.2699L21 19.2699C20.6963 19.4453 20.444 19.6974 20.2685 20.0011C20.0929 20.3047 20.0004 20.6492 20 20.9999V28.9999C20.0004 29.3506 20.0929 29.6951 20.2685 29.9987C20.444 30.3024 20.6963 30.5545 21 30.7299L28 34.7299C28.304 34.9054 28.6489 34.9979 29 34.9979C29.3511 34.9979 29.696 34.9054 30 34.7299L37 30.7299C37.3037 30.5545 37.556 30.3024 37.7315 29.9987C37.9071 29.6951 37.9996 29.3506 38 28.9999V20.9999Z" stroke="white" stroke-width="2" stroke-linecap="round" stroke-linejoin="round"/>
<path d="M20.3008 20L29.0008 25L37.7008 20" stroke="white" stroke-width="2" stroke-linecap="round" stroke-linejoin="round"/>
<path d="M29 35V25" stroke="white" stroke-width="2" stroke-linecap="round" stroke-linejoin="round"/>
</g>
<defs>
<filter id="filter0_dd_2009_388" x="0" y="0" width="58" height="58" filterUnits="userSpaceOnUse" color-interpolation-filters="sRGB">
<feFlood flood-opacity="0" result="BackgroundImageFix"/>
<feColorMatrix in="SourceAlpha" type="matrix" values="0 0 0 0 0 0 0 0 0 0 0 0 0 0 0 0 0 0 127 0" result="hardAlpha"/>
<feMorphology radius="2" operator="erode" in="SourceAlpha" result="effect1_dropShadow_2009_388"/>
<feOffset dy="2"/>
<feGaussianBlur stdDeviation="2"/>
<feComposite in2="hardAlpha" operator="out"/>
<feColorMatrix type="matrix" values="0 0 0 0 0 0 0 0 0 0 0 0 0 0 0 0 0 0 0.1 0"/>
<feBlend mode="normal" in2="BackgroundImageFix" result="effect1_dropShadow_2009_388"/>
<feColorMatrix in="SourceAlpha" type="matrix" values="0 0 0 0 0 0 0 0 0 0 0 0 0 0 0 0 0 0 127 0" result="hardAlpha"/>
<feMorphology radius="1" operator="erode" in="SourceAlpha" result="effect2_dropShadow_2009_388"/>
<feOffset dy="4"/>
<feGaussianBlur stdDeviation="3"/>
<feComposite in2="hardAlpha" operator="out"/>
<feColorMatrix type="matrix" values="0 0 0 0 0 0 0 0 0 0 0 0 0 0 0 0 0 0 0.1 0"/>
<feBlend mode="normal" in2="effect1_dropShadow_2009_388" result="effect2_dropShadow_2009_388"/>
<feBlend mode="normal" in="SourceGraphic" in2="effect2_dropShadow_2009_388" result="shape"/>
</filter>
</defs>
</svg>
