<svg width="58" height="58" viewBox="0 0 58 58" fill="none" xmlns="http://www.w3.org/2000/svg">
<g filter="url(#filter0_dd_2009_65)">
<rect x="5" y="1" width="48" height="48" rx="24" fill="#EAB308"/>
<path d="M33 34V32C33 30.9391 32.5786 29.9217 31.8284 29.1716C31.0783 28.4214 30.0609 28 29 28H23C21.9391 28 20.9217 28.4214 20.1716 29.1716C19.4214 29.9217 19 30.9391 19 32V34" stroke="white" stroke-width="2" stroke-linecap="round" stroke-linejoin="round"/>
<path d="M26 24C28.2091 24 30 22.2091 30 20C30 17.7909 28.2091 16 26 16C23.7909 16 22 17.7909 22 20C22 22.2091 23.7909 24 26 24Z" stroke="white" stroke-width="2" stroke-linecap="round" stroke-linejoin="round"/>
<path d="M39 33.9999V31.9999C38.9993 31.1136 38.7044 30.2527 38.1614 29.5522C37.6184 28.8517 36.8581 28.3515 36 28.1299" stroke="white" stroke-width="2" stroke-linecap="round" stroke-linejoin="round"/>
<path d="M33 16.1299C33.8604 16.3502 34.623 16.8506 35.1676 17.5522C35.7122 18.2538 36.0078 19.1167 36.0078 20.0049C36.0078 20.8931 35.7122 21.756 35.1676 22.4576C34.623 23.1592 33.8604 23.6596 33 23.8799" stroke="white" stroke-width="2" stroke-linecap="round" stroke-linejoin="round"/>
</g>
<defs>
<filter id="filter0_dd_2009_65" x="0" y="0" width="58" height="58" filterUnits="userSpaceOnUse" color-interpolation-filters="sRGB">
<feFlood flood-opacity="0" result="BackgroundImageFix"/>
<feColorMatrix in="SourceAlpha" type="matrix" values="0 0 0 0 0 0 0 0 0 0 0 0 0 0 0 0 0 0 127 0" result="hardAlpha"/>
<feMorphology radius="2" operator="erode" in="SourceAlpha" result="effect1_dropShadow_2009_65"/>
<feOffset dy="2"/>
<feGaussianBlur stdDeviation="2"/>
<feComposite in2="hardAlpha" operator="out"/>
<feColorMatrix type="matrix" values="0 0 0 0 0 0 0 0 0 0 0 0 0 0 0 0 0 0 0.1 0"/>
<feBlend mode="normal" in2="BackgroundImageFix" result="effect1_dropShadow_2009_65"/>
<feColorMatrix in="SourceAlpha" type="matrix" values="0 0 0 0 0 0 0 0 0 0 0 0 0 0 0 0 0 0 127 0" result="hardAlpha"/>
<feMorphology radius="1" operator="erode" in="SourceAlpha" result="effect2_dropShadow_2009_65"/>
<feOffset dy="4"/>
<feGaussianBlur stdDeviation="3"/>
<feComposite in2="hardAlpha" operator="out"/>
<feColorMatrix type="matrix" values="0 0 0 0 0 0 0 0 0 0 0 0 0 0 0 0 0 0 0.1 0"/>
<feBlend mode="normal" in2="effect1_dropShadow_2009_65" result="effect2_dropShadow_2009_65"/>
<feBlend mode="normal" in="SourceGraphic" in2="effect2_dropShadow_2009_65" result="shape"/>
</filter>
</defs>
</svg>
