<svg width="48" height="48" viewBox="0 0 48 48" fill="none" xmlns="http://www.w3.org/2000/svg">
<rect width="48" height="48" rx="6" fill="#3B82F6"/>
<path d="M21 15H16C15.4477 15 15 15.4477 15 16V23C15 23.5523 15.4477 24 16 24H21C21.5523 24 22 23.5523 22 23V16C22 15.4477 21.5523 15 21 15Z" stroke="white" stroke-width="2" stroke-linecap="round" stroke-linejoin="round"/>
<path d="M32 15H27C26.4477 15 26 15.4477 26 16V19C26 19.5523 26.4477 20 27 20H32C32.5523 20 33 19.5523 33 19V16C33 15.4477 32.5523 15 32 15Z" stroke="white" stroke-width="2" stroke-linecap="round" stroke-linejoin="round"/>
<path d="M32 24H27C26.4477 24 26 24.4477 26 25V32C26 32.5523 26.4477 33 27 33H32C32.5523 33 33 32.5523 33 32V25C33 24.4477 32.5523 24 32 24Z" stroke="white" stroke-width="2" stroke-linecap="round" stroke-linejoin="round"/>
<path d="M21 28H16C15.4477 28 15 28.4477 15 29V32C15 32.5523 15.4477 33 16 33H21C21.5523 33 22 32.5523 22 32V29C22 28.4477 21.5523 28 21 28Z" stroke="white" stroke-width="2" stroke-linecap="round" stroke-linejoin="round"/>
</svg>
