<svg width="48" height="48" viewBox="0 0 48 48" fill="none" xmlns="http://www.w3.org/2000/svg">
<rect width="48" height="48" rx="6" fill="#6366F1"/>
<path d="M15.8492 20.6201C15.7033 19.9626 15.7257 19.2789 15.9144 18.6324C16.1031 17.9859 16.452 17.3975 16.9287 16.9218C17.4054 16.4461 17.9945 16.0984 18.6414 15.9111C19.2883 15.7237 19.972 15.7028 20.6292 15.8501C20.9909 15.2844 21.4892 14.8189 22.0782 14.4964C22.6671 14.1739 23.3278 14.0049 23.9992 14.0049C24.6707 14.0049 25.3313 14.1739 25.9203 14.4964C26.5092 14.8189 27.0075 15.2844 27.3692 15.8501C28.0274 15.7021 28.7123 15.723 29.3602 15.9108C30.0081 16.0986 30.598 16.4472 31.0751 16.9243C31.5521 17.4013 31.9007 17.9912 32.0885 18.6391C32.2763 19.287 32.2972 19.9719 32.1492 20.6301C32.7149 20.9918 33.1805 21.4901 33.5029 22.079C33.8254 22.668 33.9944 23.3286 33.9944 24.0001C33.9944 24.6715 33.8254 25.3322 33.5029 25.9211C33.1805 26.5101 32.7149 27.0084 32.1492 27.3701C32.2966 28.0273 32.2756 28.711 32.0882 29.3579C31.9009 30.0048 31.5532 30.5939 31.0775 31.0706C30.6018 31.5473 30.0134 31.8962 29.3669 32.0849C28.7204 32.2736 28.0367 32.2961 27.3792 32.1501C27.018 32.718 26.5193 33.1855 25.9293 33.5094C25.3394 33.8333 24.6772 34.0032 24.0042 34.0032C23.3312 34.0032 22.669 33.8333 22.0791 33.5094C21.4891 33.1855 20.9905 32.718 20.6292 32.1501C19.972 32.2974 19.2883 32.2765 18.6414 32.0891C17.9945 31.9018 17.4054 31.5541 16.9287 31.0784C16.452 30.6027 16.1031 30.0143 15.9144 29.3678C15.7257 28.7213 15.7033 28.0376 15.8492 27.3801C15.2792 27.0193 14.8096 26.5203 14.4843 25.9293C14.1589 25.3384 13.9883 24.6747 13.9883 24.0001C13.9883 23.3255 14.1589 22.6618 14.4843 22.0709C14.8096 21.4799 15.2792 20.9809 15.8492 20.6201Z" stroke="white" stroke-width="2" stroke-linecap="round" stroke-linejoin="round"/>
<path d="M21 24L23 26L27 22" stroke="white" stroke-width="2" stroke-linecap="round" stroke-linejoin="round"/>
</svg>
